<svg width="132" height="75" viewBox="0 0 132 75" fill="none" xmlns="http://www.w3.org/2000/svg">
<path fill-rule="evenodd" clip-rule="evenodd" d="M99.6772 45.0459L75.0128 45.0461C73.248 45.048 72.6784 44.646 71.852 43.3633C71.0471 42.1138 70.4748 39.2075 70.3934 37.7935C70.3287 36.6666 70.4414 35.579 70.2707 34.5281C69.8867 32.1655 68.9612 29.8733 67.3747 27.9842C64.664 24.7566 59.0785 22.3714 54.8497 22.3803C43.5488 22.254 32.0062 21.8466 20.7405 21.8861C19.6617 21.8898 18.7493 21.6895 18.0062 20.9617C16.8118 19.792 16.8344 17.9437 17.2087 16.3005C17.5385 14.8524 18.213 13.4838 19.4587 12.7012C21.0985 11.6712 39.307 12.2426 42.5029 12.2426C45.4823 12.2426 48.5046 11.7744 50.3709 14.1728C51.0945 15.1027 51.6221 16.3645 51.6518 17.5999C55.777 17.5999 62.7011 17.7373 66.6504 17.3407C67.9193 17.2132 67.6156 17.4874 67.8417 16.3857C68.3525 13.8972 68.4182 11.5294 67.7967 9.04771C67.5331 7.99498 67.0182 7.01065 66.4692 6.15856C65.8459 5.19149 65.2871 4.66857 64.4652 3.89705C62.7028 2.24256 59.7779 1.04837 57.2633 0.35957C56.5726 0.170399 33.9425 0.291505 32.9987 0.291505C29.2075 0.291505 16.2287 0.0362561 13.3935 0.479552C11.0349 0.848233 8.94829 1.66082 6.96705 2.75849C5.846 3.37974 4.85501 4.20302 3.93039 5.05088L2.4426 6.71987C-1.08425 11.6693 0.194466 19.4773 1.19271 25.1064C2.68078 31.271 7.30293 34.7795 14.0803 34.7422C18.2813 34.8683 47.0236 35.2481 49.7578 36.336C53.3788 37.7764 52.1196 39.9698 52.4417 43.8952C52.6402 46.3137 53.2284 48.8001 54.1675 50.5416C55.4643 52.9463 57.3116 55.1415 59.9725 56.3642L62.2973 57.3391C65.8715 58.5811 68.3037 58.398 72.1704 58.398C86.9068 58.398 101.643 58.398 116.379 58.398C123.127 58.398 131.528 52.4122 131.862 45.7066C131.902 44.921 131.861 44.0301 131.861 43.2326C131.861 39.9357 131.861 36.6389 131.861 33.3421H115.162C115.513 34.0215 115.235 36.7552 114.993 37.8838C114.758 38.9784 114.104 40.5949 113.474 41.4199C111.853 43.5445 109.676 44.6744 106.79 45.0253C106.138 45.1045 100.811 45.0458 99.6772 45.0458V45.0459Z" fill="white"/>
<path fill-rule="evenodd" clip-rule="evenodd" d="M64.265 0.126724C64.4457 0.377226 64.7239 0.485998 65.0014 0.679655C65.992 1.37061 66.0063 1.43789 66.8344 2.11082L67.8187 3.09316C68.026 3.34219 68.233 3.58036 68.4398 3.83561C69.6736 5.35795 70.4831 7.17892 70.905 9.13083C71.0568 9.83274 71.5602 13.099 71.1933 13.8085C71.9501 13.8085 72.3571 13.7205 73.0576 13.7251L78.2881 13.5269C78.4018 13.5173 78.5246 13.4788 78.7434 13.4788H105.302C107.124 13.4788 110.455 14.6077 111.936 15.7297C112.9 16.4604 113.408 16.9724 114.097 17.9285C114.626 18.6635 115.178 19.8998 115.428 20.8967H131.683C131.683 20.321 131.772 20.0924 131.772 19.4955C131.772 16.699 132.019 12.8805 131.163 10.5001C131.052 10.1931 130.96 9.96032 130.821 9.6635C130.742 9.49537 130.686 9.41421 130.619 9.27403L130.188 8.43695C129.471 7.18944 128.759 6.30716 127.753 5.25659C125.742 3.15682 123.546 1.9489 120.615 1.00055C119.562 0.659816 117.566 0.190641 116.314 0.128964C110.442 -0.159838 101.772 0.126631 95.6202 0.126631H64.2651L64.265 0.126724Z" fill="white"/>
<path fill-rule="evenodd" clip-rule="evenodd" d="M0.400109 40.5952C0.400109 43.8248 0.176162 48.4219 1.40635 50.8708C3.47507 54.9892 7.06579 57.1636 11.7024 58.0485C13.7345 58.4363 18.0858 58.2333 20.5635 58.2333C32.5843 58.2333 44.6052 58.2333 56.6262 58.2333C56.5057 57.9243 56.4253 58.0208 56.0317 57.7136C55.906 57.6155 55.8737 57.5724 55.7505 57.4801C52.8992 55.3445 50.9914 52.2911 49.8867 49.0744C49.7372 48.6391 49.4315 47.7696 49.4315 47.2714H24.0277C23.0709 47.2714 21.487 47.215 20.802 46.9678C19.4583 46.4829 18.1885 44.3113 17.7098 43.0785C17.3708 42.2058 17.2551 41.322 17.0105 40.348C11.9457 40.348 6.24139 40.4223 1.19662 40.3451C0.801156 40.3391 0.400205 40.2477 0.400205 40.5952H0.400109Z" fill="white"/>
<path fill-rule="evenodd" clip-rule="evenodd" d="M91.5341 65.9809V73.8109C91.5341 74.2858 92.301 74.1405 93.1329 74.1405C93.6177 74.1405 93.4912 73.5308 93.4886 73.0693L93.4882 68.6183L95.0239 71.3969C95.2106 71.8026 96.2966 74.1405 96.6859 74.1405C97.913 74.1405 98.7289 74.3118 98.7289 73.8932V65.8984C98.7289 65.5182 98.2297 65.6512 97.2189 65.6512C96.7161 65.6512 96.862 66.3516 96.8634 66.805L96.8635 71.2558C96.8027 71.1908 96.8188 71.22 96.7548 71.1095L94.2584 66.2553C93.8484 65.4818 94.2167 65.6513 91.8894 65.6513C91.6814 65.6513 91.5341 65.788 91.5341 65.981L91.5341 65.9809Z" fill="white"/>
<path fill-rule="evenodd" clip-rule="evenodd" d="M81.9411 65.9809V73.8109C81.9411 74.2858 82.7081 74.1405 83.54 74.1405C84.0247 74.1405 83.8983 73.5308 83.8957 73.0693L83.8953 68.6183L85.431 71.3969C85.6175 71.8026 86.7036 74.1405 87.093 74.1405C88.3201 74.1405 89.1359 74.3118 89.1359 73.8932V65.8984C89.1359 65.5182 88.6367 65.6512 87.6259 65.6512C87.1232 65.6512 87.269 66.3516 87.2704 66.805L87.2705 71.2558C87.2096 71.1908 87.2258 71.22 87.1618 71.1095L84.6655 66.2553C84.2554 65.4818 84.6237 65.6513 82.2964 65.6513C82.0884 65.6513 81.9411 65.788 81.9411 65.981V65.9809Z" fill="white"/>
<path fill-rule="evenodd" clip-rule="evenodd" d="M35.93 72.3273H33.9759V67.4644C36.0229 67.4644 37.44 67.0723 37.44 69.937C37.44 70.8854 37.1655 72.3272 35.9299 72.3272L35.93 72.3273ZM31.9329 65.9809V73.8109C31.9329 74.0038 32.0803 74.1405 32.2882 74.1405C36.8108 74.1405 39.5718 74.7826 39.5718 69.7722C39.5718 65.0015 36.0061 65.6512 32.2882 65.6512C32.0803 65.6512 31.9329 65.7879 31.9329 65.9809Z" fill="white"/>
<path fill-rule="evenodd" clip-rule="evenodd" d="M26.4258 72.3273H24.4716V67.4644C26.5186 67.4644 27.9357 67.0723 27.9357 69.937C27.9357 70.8854 27.6612 72.3272 26.4257 72.3272L26.4258 72.3273ZM22.4287 65.9809V73.8109C22.4287 74.0038 22.5761 74.1405 22.7839 74.1405C27.3065 74.1405 30.0676 74.7826 30.0676 69.7722C30.0676 65.0015 26.5019 65.6512 22.7839 65.6512C22.5762 65.6512 22.4287 65.7879 22.4287 65.9809Z" fill="white"/>
<path fill-rule="evenodd" clip-rule="evenodd" d="M8.48309 68.0414C8.48309 72.4075 13.9902 69.5138 13.9902 71.4206C13.9902 72.5705 13.1558 72.3273 11.5919 72.3273C11.0887 72.3273 10.5851 72.3285 10.0818 72.3271C8.65629 72.3232 8.83831 72.1268 8.83831 73.8109C8.83831 74.0038 8.98566 74.1405 9.19362 74.1405C10.6914 74.1405 14.1981 74.3278 15.1987 73.696C16.2438 73.036 16.515 70.9856 15.7874 69.9176C14.3839 67.857 10.6148 69.7564 10.6148 68.2062L10.7037 67.6292C11.3036 67.3622 13.7459 67.4577 14.7014 67.4651C15.9403 67.4747 15.7667 67.6081 15.7667 65.9809C15.7667 65.7879 15.6193 65.6512 15.4114 65.6512C14.0927 65.6512 10.2982 65.4723 9.48208 66.0836C8.97208 66.4656 8.48309 67.2115 8.48309 68.0415V68.0414Z" fill="white"/>
<path fill-rule="evenodd" clip-rule="evenodd" d="M76.2563 72.4921C75.6284 72.4921 74.946 72.5426 74.494 71.8196C73.9868 71.0083 73.6076 67.382 75.7233 67.382C76.5142 67.382 77.1723 67.3602 77.592 68.2032C78.0436 69.1107 78.0436 70.7634 77.592 71.6709C77.3747 72.1073 76.9405 72.4921 76.2562 72.4921H76.2563ZM71.9927 69.4425C71.9927 70.5195 71.928 70.9148 72.3128 71.948C72.5802 72.6663 72.9945 73.1019 73.6425 73.5163C75.2356 74.5347 80.0758 74.8554 80.0758 70.0195C80.0758 69.5885 79.961 68.7297 79.8597 68.3243C79.5962 67.2691 79.0444 66.5211 78.0352 66.0611C75.9617 65.1158 71.9927 65.6174 71.9927 69.4425Z" fill="white"/>
<path fill-rule="evenodd" clip-rule="evenodd" d="M41.5258 65.9809V73.8109C41.5258 74.2924 42.3328 74.1405 43.2134 74.1405C43.4214 74.1405 43.5688 74.0038 43.5688 73.8109V70.8437H46.3222V73.8933C46.3222 74.2802 46.8679 74.1406 47.921 74.1406C48.129 74.1406 48.2763 74.0039 48.2763 73.811V65.981C48.2763 65.4994 47.4693 65.6513 46.5887 65.6513C46.3841 65.6513 46.3222 65.7087 46.3222 65.8985V69.0306H43.5687V65.981C43.5687 65.4994 42.7616 65.6513 41.881 65.6513C41.673 65.6513 41.5257 65.788 41.5257 65.981L41.5258 65.9809Z" fill="white"/>
<path fill-rule="evenodd" clip-rule="evenodd" d="M54.2277 68.2062L54.6852 69.2653C54.7896 69.5255 55.0891 70.1322 55.116 70.4315H53.3395C53.4873 70.1457 53.655 69.6533 53.7733 69.3505C53.9085 69.0046 54.1428 68.5447 54.2278 68.2062L54.2277 68.2062ZM52.096 74.1405C52.2584 73.4938 52.6382 72.9157 52.8065 72.2448H55.649C55.8063 72.5207 55.9624 72.9535 56.0797 73.2463C56.1527 73.4287 56.2003 73.5754 56.265 73.7336C56.4897 74.2834 56.2813 74.1404 58.3138 74.1404C58.4591 74.1404 58.5802 74.0911 58.5802 73.9756C58.5802 73.7329 57.9433 72.215 57.8066 71.891L55.2937 65.651H53.1619L50.2203 73.0593C49.9631 73.7171 49.6516 74.044 50.2301 74.1368C50.5767 74.1922 51.6719 74.1404 52.0959 74.1404L52.096 74.1405Z" fill="white"/>
<path fill-rule="evenodd" clip-rule="evenodd" d="M100.683 69.2776C100.683 70.8884 100.584 72.8873 102.664 73.786C102.918 73.8961 103.288 74.0057 103.546 74.0391C104.537 74.1675 105.937 74.1404 106.99 74.1404C107.414 74.1404 107.256 73.5887 107.256 72.5745C107.256 71.6776 102.904 73.4697 102.904 70.8436H106.989C107.414 70.8436 107.256 70.2919 107.256 69.2777C107.256 68.9187 106.78 69.0238 106.369 69.029L102.815 69.0305C102.899 68.0886 103.247 67.5072 104.323 67.463C107.631 67.3267 107.256 68.127 107.256 65.8984C107.256 65.7087 107.194 65.6512 106.99 65.6512C106.002 65.6512 103.857 65.5845 103.007 65.8299C102.555 65.9603 102.172 66.3147 101.785 66.5915C101.088 67.0902 100.683 68.1588 100.683 69.2778L100.683 69.2776Z" fill="white"/>
<path fill-rule="evenodd" clip-rule="evenodd" d="M63.8209 69.4425C63.8209 72.6901 64.4519 74.1405 68.1734 74.1405C70.9774 74.1405 70.4828 74.5479 70.4828 72.5746C70.4828 72.0129 68.4183 72.5282 67.2288 72.2971C65.9003 72.0391 65.9528 70.4657 65.9528 69.4425C65.9528 68.3704 66.3315 67.6292 67.3041 67.4821L69.8688 67.4715C70.6255 67.477 70.4828 67.6037 70.4828 65.8984C70.4828 65.7086 70.421 65.6512 70.2163 65.6512C68.3191 65.6512 66.1422 65.4095 64.9065 66.5761C64.2569 67.189 63.8209 68.2555 63.8209 69.4425Z" fill="white"/>
<path fill-rule="evenodd" clip-rule="evenodd" d="M108.944 69.4425C108.944 72.6901 109.575 74.1405 113.296 74.1405C116.1 74.1405 115.606 74.5479 115.606 72.5746C115.606 72.2565 115.323 72.3178 114.992 72.3201C112.03 72.3413 111.076 72.7847 111.076 69.4425C111.076 67.0274 112.798 67.4558 114.992 67.4715C115.748 67.477 115.606 67.6037 115.606 65.8984C115.606 65.7086 115.544 65.6512 115.339 65.6512C113.442 65.6512 111.265 65.4095 110.029 66.5761C109.38 67.189 108.944 68.2555 108.944 69.4425Z" fill="white"/>
<path fill-rule="evenodd" clip-rule="evenodd" d="M116.849 65.7335V67.3819C117.637 67.5522 118.602 67.4644 119.425 67.4644V73.8932C119.425 74.2801 119.971 74.1405 121.024 74.1405C121.232 74.1405 121.379 74.0038 121.379 73.8109V67.4645C122.202 67.4645 123.168 67.5523 123.955 67.382V65.7336C123.271 65.5857 117.342 65.5563 116.849 65.7336L116.849 65.7335Z" fill="white"/>
<path fill-rule="evenodd" clip-rule="evenodd" d="M18.0762 65.9808V73.8109C18.0762 74.2924 18.8833 74.1405 19.7639 74.1405C19.9718 74.1405 20.1191 74.0037 20.1191 73.8109V65.9808C20.1191 65.4992 19.3121 65.6511 18.4315 65.6511C18.2236 65.6511 18.0762 65.7879 18.0762 65.9808Z" fill="white"/>
</svg>
